<svg width="1920" height="1530" viewBox="0 0 1920 1530" fill="none" xmlns="http://www.w3.org/2000/svg">
<circle cx="1" cy="1" r="1" fill="#AAFF00"/>
<circle cx="1" cy="105" r="1" fill="#AAFF00"/>
<circle cx="1" cy="53" r="1" fill="#AAFF00"/>
<circle cx="53" cy="1" r="1" fill="#AAFF00"/>
<circle cx="53" cy="105" r="1" fill="#AAFF00"/>
<circle cx="53" cy="53" r="1" fill="#AAFF00"/>
<circle cx="105" cy="1" r="1" fill="#AAFF00"/>
<circle cx="105" cy="105" r="1" fill="#AAFF00"/>
<circle cx="105" cy="53" r="1" fill="#AAFF00"/>
<circle cx="157" cy="1" r="1" fill="#AAFF00"/>
<circle cx="157" cy="105" r="1" fill="#AAFF00"/>
<circle cx="157" cy="53" r="1" fill="#AAFF00"/>
<circle cx="209" cy="1" r="1" fill="#AAFF00"/>
<circle cx="209" cy="105" r="1" fill="#AAFF00"/>
<circle cx="209" cy="53" r="1" fill="#AAFF00"/>
<circle cx="261" cy="1" r="1" fill="#AAFF00"/>
<circle cx="261" cy="105" r="1" fill="#AAFF00"/>
<circle cx="261" cy="53" r="1" fill="#AAFF00"/>
<circle cx="313" cy="1" r="1" fill="#AAFF00"/>
<circle cx="313" cy="105" r="1" fill="#AAFF00"/>
<circle cx="313" cy="53" r="1" fill="#AAFF00"/>
<circle cx="365" cy="1" r="1" fill="#AAFF00"/>
<circle cx="365" cy="105" r="1" fill="#AAFF00"/>
<circle cx="365" cy="53" r="1" fill="#AAFF00"/>
<circle cx="417" cy="1" r="1" fill="#AAFF00"/>
<circle cx="417" cy="105" r="1" fill="#AAFF00"/>
<circle cx="417" cy="53" r="1" fill="#AAFF00"/>
<circle cx="1345" cy="1213" r="1" fill="#AAFF00"/>
<circle cx="1345" cy="1161" r="1" fill="#AAFF00"/>
<circle cx="1345" cy="1317" r="1" fill="#AAFF00"/>
<circle cx="1345" cy="1369" r="1" fill="#AAFF00"/>
<circle cx="1345" cy="1421" r="1" fill="#AAFF00"/>
<circle cx="1345" cy="1265" r="1" fill="#AAFF00"/>
<circle cx="1397" cy="1213" r="1" fill="#AAFF00"/>
<circle cx="1397" cy="1161" r="1" fill="#AAFF00"/>
<circle cx="1397" cy="1317" r="1" fill="#AAFF00"/>
<circle cx="1397" cy="1369" r="1" fill="#AAFF00"/>
<circle cx="1397" cy="1421" r="1" fill="#AAFF00"/>
<circle cx="1397" cy="1265" r="1" fill="#AAFF00"/>
<circle cx="1449" cy="1213" r="1" fill="#AAFF00"/>
<circle cx="1449" cy="1161" r="1" fill="#AAFF00"/>
<circle cx="1449" cy="1317" r="1" fill="#AAFF00"/>
<circle cx="1449" cy="1369" r="1" fill="#AAFF00"/>
<circle cx="1449" cy="1421" r="1" fill="#AAFF00"/>
<circle cx="1449" cy="1265" r="1" fill="#AAFF00"/>
<circle cx="1501" cy="1213" r="1" fill="#AAFF00"/>
<circle cx="1501" cy="1161" r="1" fill="#AAFF00"/>
<circle cx="1501" cy="1317" r="1" fill="#AAFF00"/>
<circle cx="1501" cy="1369" r="1" fill="#AAFF00"/>
<circle cx="1501" cy="1421" r="1" fill="#AAFF00"/>
<circle cx="1501" cy="1265" r="1" fill="#AAFF00"/>
<circle cx="1553" cy="1213" r="1" fill="#AAFF00"/>
<circle cx="1553" cy="1161" r="1" fill="#AAFF00"/>
<circle cx="1553" cy="1317" r="1" fill="#AAFF00"/>
<circle cx="1553" cy="1369" r="1" fill="#AAFF00"/>
<circle cx="1553" cy="1421" r="1" fill="#AAFF00"/>
<circle cx="1553" cy="1265" r="1" fill="#AAFF00"/>
<circle cx="1605" cy="1213" r="1" fill="#AAFF00"/>
<circle cx="1605" cy="1161" r="1" fill="#AAFF00"/>
<circle cx="1605" cy="1317" r="1" fill="#AAFF00"/>
<circle cx="1605" cy="1369" r="1" fill="#AAFF00"/>
<circle cx="1605" cy="1421" r="1" fill="#AAFF00"/>
<circle cx="1605" cy="1265" r="1" fill="#AAFF00"/>
<circle cx="1657" cy="1213" r="1" fill="#AAFF00"/>
<circle cx="1813" cy="1213" r="1" fill="#AAFF00"/>
<circle cx="1657" cy="1161" r="1" fill="#AAFF00"/>
<circle cx="1813" cy="1161" r="1" fill="#AAFF00"/>
<circle cx="1657" cy="1317" r="1" fill="#AAFF00"/>
<circle cx="1657" cy="1369" r="1" fill="#AAFF00"/>
<circle cx="1657" cy="1421" r="1" fill="#AAFF00"/>
<circle cx="1813" cy="1317" r="1" fill="#AAFF00"/>
<circle cx="1813" cy="1369" r="1" fill="#AAFF00"/>
<circle cx="1813" cy="1421" r="1" fill="#AAFF00"/>
<circle cx="1657" cy="1265" r="1" fill="#AAFF00"/>
<circle cx="1813" cy="1265" r="1" fill="#AAFF00"/>
<circle cx="1709" cy="1213" r="1" fill="#AAFF00"/>
<circle cx="1865" cy="1213" r="1" fill="#AAFF00"/>
<circle cx="1709" cy="1161" r="1" fill="#AAFF00"/>
<circle cx="1865" cy="1161" r="1" fill="#AAFF00"/>
<circle cx="1917" cy="1161" r="1" fill="#AAFF00"/>
<circle cx="1709" cy="1317" r="1" fill="#AAFF00"/>
<circle cx="1709" cy="1369" r="1" fill="#AAFF00"/>
<circle cx="1709" cy="1421" r="1" fill="#AAFF00"/>
<circle cx="1865" cy="1317" r="1" fill="#AAFF00"/>
<circle cx="1865" cy="1369" r="1" fill="#AAFF00"/>
<circle cx="1865" cy="1421" r="1" fill="#AAFF00"/>
<circle cx="1709" cy="1265" r="1" fill="#AAFF00"/>
<circle cx="1865" cy="1265" r="1" fill="#AAFF00"/>
<circle cx="1761" cy="1213" r="1" fill="#AAFF00"/>
<circle cx="1917" cy="1213" r="1" fill="#AAFF00"/>
<circle cx="1761" cy="1161" r="1" fill="#AAFF00"/>
<circle cx="1761" cy="1317" r="1" fill="#AAFF00"/>
<circle cx="1761" cy="1369" r="1" fill="#AAFF00"/>
<circle cx="1761" cy="1421" r="1" fill="#AAFF00"/>
<circle cx="1917" cy="1317" r="1" fill="#AAFF00"/>
<circle cx="1917" cy="1369" r="1" fill="#AAFF00"/>
<circle cx="1917" cy="1421" r="1" fill="#AAFF00"/>
<circle cx="1761" cy="1265" r="1" fill="#AAFF00"/>
<circle cx="1917" cy="1265" r="1" fill="#AAFF00"/>
<path d="M633 715L515.5 513H-19" stroke="#AAFF00"/>
<path d="M1287 1041L1404.5 1243H1939" stroke="#AAFF00"/>
<path fill-rule="evenodd" clip-rule="evenodd" d="M138 842C137.96 830.968 129.021 822.037 118 822.037C129.046 822.037 138 813.066 138 802C138.04 813.032 146.979 821.963 158 821.963C146.954 821.963 138 830.934 138 842Z" fill="#AAFF00"/>
<path fill-rule="evenodd" clip-rule="evenodd" d="M535 1351C534.93 1331.69 519.287 1316.06 500 1316.06C519.33 1316.06 535 1300.37 535 1281C535.07 1300.31 550.713 1315.94 570 1315.94C550.67 1315.94 535 1331.63 535 1351Z" fill="#AAFF00"/>
<path fill-rule="evenodd" clip-rule="evenodd" d="M750 1132C749.976 1125.38 744.613 1120.02 738 1120.02C744.627 1120.02 750 1114.64 750 1108C750.024 1114.62 755.387 1119.98 762 1119.98C755.372 1119.98 750 1125.36 750 1132Z" fill="#AAFF00"/>
<path d="M11.423 1340.66L101.81 1382.52C103.367 1383.24 104.365 1384.81 104.365 1386.54V1400.07C104.365 1401.97 103.172 1403.65 101.397 1404.26L34.8786 1427.18C33.5191 1427.65 32.0182 1427.41 30.8607 1426.56L-27.9147 1383C-28.8898 1382.27 -29.5254 1381.18 -29.6711 1379.96L-31.9679 1360.87C-32.2043 1358.9 -31.1154 1357.02 -29.3025 1356.25L7.90154 1340.6C9.03253 1340.12 10.3094 1340.15 11.423 1340.66Z" fill="#AAFF00"/>
<path d="M38.1002 1433.9L103.864 1411.06C105.853 1410.37 108.048 1411.2 109.096 1413.04L112.612 1419.2C113.391 1420.56 113.391 1422.24 112.61 1423.61L74.5553 1490.2C73.7722 1491.57 72.3227 1492.41 70.7537 1492.41H34.9371C33.5365 1492.41 32.2201 1491.74 31.3941 1490.6L16.2592 1469.71C15.1622 1468.19 15.1318 1466.15 16.1833 1464.6L35.9107 1435.58C36.4428 1434.8 37.2104 1434.21 38.1002 1433.9Z" fill="#AAFF00"/>
<path d="M109.547 1489.05C107.443 1489.05 106.028 1491.22 106.862 1493.17L111.603 1504.22C112.066 1505.3 113.121 1506 114.288 1506H161.712C162.879 1506 163.934 1505.3 164.397 1504.22L169.138 1493.17C169.972 1491.22 168.557 1489.05 166.453 1489.05H109.547Z" fill="#AAFF00"/>
<path d="M119.33 1513.05C117.353 1513.05 116.385 1515.48 117.812 1516.86L130.783 1529.39C131.191 1529.78 131.735 1530 132.301 1530H144.051C144.625 1530 145.176 1529.77 145.586 1529.37L158.286 1516.84C159.691 1515.45 158.718 1513.05 156.752 1513.05H119.33Z" fill="#AAFF00"/>
<path d="M124.715 1421.66C123.431 1421.66 122.241 1420.98 121.58 1419.87L112.198 1404.11C111.857 1403.54 111.677 1402.88 111.677 1402.22V1385.98C111.677 1384.59 112.459 1383.31 113.698 1382.69L119.253 1379.89C120.803 1379.11 122.678 1379.54 123.97 1380.71C126.757 1383.22 131.611 1386.28 138 1386.28C144.389 1386.28 149.243 1383.22 152.03 1380.71C153.322 1379.54 155.197 1379.11 156.747 1379.89L162.302 1382.69C163.541 1383.31 164.323 1384.59 164.323 1385.98V1402.22C164.323 1402.88 164.143 1403.54 163.802 1404.11L154.42 1419.87C153.759 1420.98 152.569 1421.66 151.285 1421.66H124.715Z" fill="#AAFF00"/>
<path d="M264.577 1340.66L174.19 1382.52C172.633 1383.24 171.635 1384.81 171.635 1386.54V1400.07C171.635 1401.97 172.828 1403.65 174.603 1404.26L241.121 1427.18C242.481 1427.65 243.982 1427.41 245.139 1426.56L303.915 1383C304.89 1382.27 305.525 1381.18 305.671 1379.96L307.968 1360.87C308.204 1358.9 307.115 1357.02 305.303 1356.25L268.098 1340.6C266.967 1340.12 265.691 1340.15 264.577 1340.66Z" fill="#AAFF00"/>
<path d="M237.9 1433.9L172.136 1411.06C170.147 1410.37 167.952 1411.2 166.904 1413.04L163.388 1419.2C162.609 1420.56 162.609 1422.24 163.39 1423.61L201.445 1490.2C202.228 1491.57 203.677 1492.41 205.246 1492.41H241.063C242.464 1492.41 243.78 1491.74 244.606 1490.6L259.741 1469.71C260.838 1468.19 260.868 1466.15 259.817 1464.6L240.089 1435.58C239.557 1434.8 238.79 1434.21 237.9 1433.9Z" fill="#AAFF00"/>
<path d="M136.094 1341.61C130.463 1345.87 122.645 1351.8 122.645 1363.07C122.645 1370.73 130.217 1379.12 138.181 1378.91C146.146 1379.12 153.718 1370.73 153.718 1363.07C153.718 1351.8 145.899 1345.87 140.269 1341.61C139.597 1341.1 138.363 1340.14 138.363 1340.14L138.181 1340L137.999 1340.14C137.999 1340.14 136.766 1341.1 136.094 1341.61Z" fill="#AAFF00"/>
<path d="M120.318 1429.03C119.039 1429.03 117.853 1429.7 117.191 1430.81L104.799 1451.44C103.324 1453.9 105.079 1457.04 107.927 1457.04H168.804C171.653 1457.04 173.407 1453.9 171.932 1451.44L159.54 1430.81C158.878 1429.7 157.692 1429.03 156.413 1429.03H120.318Z" fill="#AAFF00"/>
<path d="M105.441 1464.05C103.048 1464.05 101.3 1466.33 101.904 1468.66L104.384 1478.25C104.804 1479.87 106.258 1481 107.922 1481H168.08C169.743 1481 171.197 1479.87 171.617 1478.25L174.097 1468.66C174.701 1466.33 172.953 1464.05 170.559 1464.05H105.441Z" fill="#AAFF00"/>
</svg>
