<svg width="306" height="16" viewBox="0 0 306 16" fill="none" xmlns="http://www.w3.org/2000/svg">
<path d="M3 8C10.6923 2.66667 18.3846 2.66667 26.0769 8C33.7692 13.3333 41.4615 13.3333 49.1538 8C56.8461 2.66667 64.5385 2.66667 72.2308 8C79.9231 13.3333 87.6154 13.3333 95.3077 8C103 2.66667 110.692 2.66667 118.385 8C126.077 13.3333 133.769 13.3333 141.462 8C149.154 2.66667 156.846 2.66667 164.538 8C172.231 13.3333 179.923 13.3333 187.615 8C195.308 2.66667 203 2.66667 210.692 8C218.385 13.3333 226.077 13.3333 233.769 8C241.462 2.66667 249.154 2.66667 256.846 8C264.538 13.3333 272.231 13.3333 279.923 8C287.615 2.66667 295.308 2.66667 303 8" stroke="#AAFF00" stroke-width="8"/>
</svg>
