<svg width="33" height="44" viewBox="0 0 33 44" fill="none" xmlns="http://www.w3.org/2000/svg">
<path d="M28.6946 19.5924C30.5849 18.2968 31.5313 16.1521 31.5313 13.1607C31.5313 8.67237 26.0314 1.00024 21.0711 1.00024L8.38002 1.00024C3.52801 1.00024 0.577449 5.25639 0.577449 8.67236L0.577448 23.099C0.577448 23.9786 0.926863 24.8222 1.54882 25.4442C2.17078 26.0661 3.01434 26.4155 3.89393 26.4155L3.90498 26.4155C4.78163 26.4155 5.62238 26.0673 6.24227 25.4474C6.86216 24.8275 7.21041 23.9868 7.21041 23.1101" stroke="#F2F2F2" stroke-linecap="round"/>
<path d="M27.1294 17.0906L27.1294 39.6868C27.1293 40.1227 27.0431 40.5543 26.8759 40.9568C26.7088 41.3594 26.4638 41.725 26.1552 42.0328C25.8465 42.3405 25.4801 42.5844 25.0771 42.7504C24.674 42.9163 24.2422 43.0012 23.8063 43C22.9239 42.9976 22.0785 42.6454 21.4556 42.0206C20.8326 41.3957 20.4829 40.5493 20.4832 39.6669L20.4832 22.4555" stroke="#F2F2F2" stroke-linecap="round"/>
<path d="M20.4839 23.1008L20.4839 27.5139C20.4615 28.383 20.1005 29.209 19.4779 29.8158C18.8553 30.4226 18.0202 30.7622 17.1508 30.7622C16.2814 30.7622 15.4464 30.4226 14.8238 29.8158C14.2011 29.209 13.8402 28.383 13.8178 27.5139L13.8178 23.1008" stroke="#F2F2F2" stroke-linecap="round" stroke-linejoin="round"/>
<path d="M13.8438 23.4241L13.8438 26.4233C13.8438 27.3029 13.4943 28.1464 12.8724 28.7684C12.2504 29.3903 11.4069 29.7397 10.5273 29.7397C9.64769 29.7397 8.80413 29.3903 8.18217 28.7684C7.56021 28.1464 7.21079 27.3029 7.21079 26.4233L7.21079 23.1068" stroke="#F2F2F2" stroke-linecap="round" stroke-linejoin="round"/>
</svg>
