<svg width="1920" height="286" viewBox="0 0 1920 286" fill="none" xmlns="http://www.w3.org/2000/svg">
<rect x="-432" y="151.104" width="2777" height="60" transform="rotate(-2 -432 151.104)" fill="#AAFF00"/>
<path d="M23.1594 150.018L28.2762 149.839L29.2604 178.022L24.1435 178.201L23.7401 166.648L8.58933 167.177L8.99277 178.73L3.83591 178.91L2.85175 150.727L8.0086 150.547L8.43298 162.7L23.5837 162.171L23.1594 150.018ZM54.9582 177.125L51.6966 167.393L40.2635 167.792L37.6887 177.728L32.4919 177.909L40.0225 149.429L50.6161 149.059L60.155 176.943L54.9582 177.125ZM41.4264 163.269L50.181 162.963L46.025 150.54L44.7058 150.586L41.4264 163.269ZM85.6916 147.834L86.6757 176.017L81.5189 176.197L80.6911 152.492L67.699 152.945L68.5268 176.651L63.3699 176.831L62.3858 148.648L85.6916 147.834ZM94.0046 172.079C91.4036 169.422 90.0296 165.987 89.8826 161.777C89.7355 157.566 90.8671 154.058 93.2773 151.252C95.7142 148.445 99.0513 146.968 103.289 146.82C107.526 146.672 110.945 147.926 113.546 150.584C116.146 153.215 117.52 156.622 117.666 160.806C117.813 165.017 116.682 168.539 114.272 171.371C111.862 174.177 108.538 175.654 104.301 175.802C100.063 175.95 96.6313 174.709 94.0046 172.079ZM97.024 154.243C95.5939 156.08 94.9324 158.532 95.0394 161.597C95.1464 164.661 95.9778 167.074 97.5335 168.834C99.0892 170.594 101.293 171.424 104.144 171.325C106.996 171.225 109.123 170.244 110.526 168.38C111.955 166.516 112.616 164.051 112.509 160.986C112.402 157.922 111.571 155.523 110.016 153.789C108.46 152.029 106.27 151.198 103.445 151.297C100.593 151.396 98.4531 152.378 97.024 154.243ZM142.614 145.847L143.598 174.029L138.481 174.208L137.653 150.503L128.859 150.81C128.905 152.916 128.916 154.743 128.89 156.292C128.891 157.84 128.828 159.496 128.703 161.261C128.578 163.027 128.377 164.528 128.1 165.765C127.822 166.976 127.424 168.19 126.906 169.409C126.388 170.601 125.755 171.571 125.007 172.317C124.285 173.036 123.372 173.642 122.269 174.134C121.191 174.598 119.946 174.855 118.533 174.905L118.377 170.427C119.363 170.393 120.194 170.124 120.87 169.62C121.573 169.115 122.117 168.256 122.501 167.041C122.885 165.801 123.191 164.643 123.42 163.567C123.649 162.465 123.764 160.807 123.767 158.592C123.796 156.376 123.8 154.575 123.778 153.188C123.756 151.775 123.694 149.629 123.594 146.751C123.59 146.644 123.587 146.564 123.585 146.511L142.614 145.847ZM167.485 144.978L172.602 144.799L173.586 172.982L168.47 173.161L168.066 161.608L152.915 162.137L153.319 173.69L148.162 173.87L147.178 145.687L152.335 145.507L152.759 157.66L167.91 157.131L167.485 144.978ZM204.648 171.898L199.491 172.078L198.67 148.572L199.472 145.182L198.153 145.228L188.377 172.466L178.184 172.822L177.2 144.639L182.316 144.46L183.137 167.966L182.335 171.356L183.654 171.31L193.47 144.071L203.663 143.715L204.648 171.898ZM209.179 171.739L208.195 143.556L218.389 143.2L225.004 169.866L226.323 169.82L231.061 142.758L241.255 142.402L242.239 170.585L237.082 170.765L236.262 147.259L237.104 143.868L235.745 143.915L230.766 170.985L220.692 171.337L213.798 144.682L212.479 144.728L213.516 148.054L214.336 171.559L209.179 171.739ZM258.879 163.039L258.464 151.167L270.545 156.708L258.879 163.039ZM286.518 162.074L286.104 150.202L298.185 155.743L286.518 162.074ZM314.158 161.109L313.743 149.236L325.824 154.778L314.158 161.109ZM365.521 138.063L366.505 166.245L361.348 166.425L360.52 142.72L347.528 143.174L348.356 166.879L343.199 167.059L342.215 138.876L365.521 138.063ZM379.284 137.582C380.803 137.529 382.139 137.562 383.29 137.682C384.467 137.774 385.596 138.015 386.677 138.404C387.757 138.767 388.643 139.296 389.334 139.993C390.052 140.661 390.63 141.562 391.07 142.694C391.51 143.826 391.757 145.178 391.812 146.75C391.881 148.722 391.645 150.372 391.104 151.698C390.59 153.023 389.759 154.053 388.61 154.787C387.488 155.493 386.251 156.003 384.901 156.317C383.551 156.605 381.902 156.782 379.957 156.85L375.879 156.993L376.191 165.907L371.034 166.087L370.05 137.904L379.284 137.582ZM380.08 152.363C382.452 152.28 384.16 151.887 385.202 151.184C386.245 150.48 386.729 149.062 386.655 146.93C386.581 144.825 386 143.471 384.912 142.869C383.823 142.24 382.092 141.967 379.72 142.049L375.363 142.202L375.723 152.515L380.08 152.363ZM398.897 161.432C396.296 158.774 394.922 155.34 394.775 151.13C394.628 146.919 395.759 143.41 398.17 140.605C400.606 137.798 403.944 136.321 408.181 136.173C412.418 136.025 415.838 137.279 418.439 139.937C421.039 142.568 422.412 145.975 422.558 150.159C422.705 154.37 421.574 157.892 419.165 160.724C416.754 163.53 413.431 165.007 409.193 165.155C404.956 165.303 401.524 164.062 398.897 161.432ZM401.916 143.596C400.486 145.433 399.825 147.885 399.932 150.949C400.039 154.014 400.87 156.427 402.426 158.187C403.981 159.947 406.185 160.777 409.037 160.678C411.888 160.578 414.015 159.597 415.418 157.733C416.847 155.869 417.508 153.404 417.401 150.339C417.294 147.275 416.463 144.875 414.908 143.142C413.353 141.382 411.162 140.551 408.337 140.65C405.486 140.749 403.345 141.731 401.916 143.596ZM449.163 158.876L451.801 158.784L452.149 168.738L446.992 168.918L446.801 163.441L429.012 164.063L429.203 169.539L424.046 169.719L423.699 159.765L426.337 159.673C428.788 154.972 429.818 147.024 429.427 135.831L448.335 135.171L449.163 158.876ZM431.494 159.493L444.006 159.056L443.335 139.828L434.62 140.132C434.662 148.99 433.62 155.443 431.494 159.493ZM455.162 163.149L454.178 134.967L463.133 134.654C467.077 134.516 469.959 134.909 471.779 135.833C473.625 136.729 474.594 138.51 474.687 141.175C474.727 142.321 474.574 143.286 474.228 144.072C473.909 144.857 473.423 145.461 472.771 145.884C472.117 146.281 471.474 146.57 470.84 146.752C470.206 146.934 469.45 147.068 468.572 147.152L468.62 148.511C469.82 148.496 470.863 148.566 471.749 148.722C472.662 148.877 473.552 149.166 474.421 149.589C475.289 150.012 475.966 150.669 476.451 151.559C476.936 152.45 477.201 153.561 477.248 154.894C477.3 156.386 477.037 157.649 476.459 158.683C475.908 159.69 475.055 160.48 473.901 161.054C472.747 161.628 471.467 162.046 470.062 162.309C468.684 162.57 467.035 162.735 465.116 162.802L455.162 163.149ZM459.729 146.06L464.046 145.909C466.018 145.84 467.437 145.59 468.303 145.16C469.194 144.702 469.614 143.753 469.564 142.314C469.542 141.674 469.43 141.145 469.228 140.725C469.026 140.278 468.774 139.954 468.474 139.751C468.199 139.52 467.78 139.361 467.216 139.274C466.679 139.159 466.183 139.097 465.729 139.086C465.275 139.075 464.635 139.084 463.809 139.113L459.491 139.264L459.729 146.06ZM460.163 158.492L465.48 158.306C467.878 158.223 469.589 157.923 470.611 157.407C471.634 156.891 472.116 155.793 472.057 154.114C472 152.462 471.429 151.401 470.345 150.932C469.288 150.462 467.574 150.268 465.202 150.351L459.885 150.537L460.163 158.492ZM507.705 161.315L502.548 161.495L501.727 137.989L502.529 134.599L501.21 134.645L491.435 161.883L481.241 162.239L480.257 134.056L485.374 133.877L486.195 157.383L485.393 160.773L486.712 160.727L496.527 133.488L506.721 133.132L507.705 161.315ZM531.56 132.264L536.677 132.086L537.661 160.268L532.545 160.447L532.141 148.894L516.99 149.423L517.394 160.976L512.237 161.156L511.253 132.973L516.41 132.793L516.834 144.946L531.985 144.417L531.56 132.264ZM542.219 160.109L541.234 131.926L560.303 131.261L560.459 135.738L546.548 136.224L546.805 143.579L558.717 143.163L558.874 147.64L546.961 148.056L547.219 155.452L561.131 154.966L561.287 159.443L542.219 160.109ZM565.291 159.304L564.306 131.121L574.5 130.765L581.115 157.43L582.434 157.384L587.172 130.322L597.366 129.966L598.35 158.149L593.194 158.329L592.373 134.824L593.215 131.432L591.856 131.48L586.877 158.55L576.804 158.902L569.909 132.246L568.59 132.292L569.627 135.618L570.447 159.124L565.291 159.304ZM614.99 150.604L614.575 138.731L626.656 144.273L614.99 150.604ZM642.629 149.639L642.215 137.766L654.296 143.308L642.629 149.639ZM670.269 148.673L669.854 136.801L681.935 142.342L670.269 148.673ZM721.632 125.627L722.616 153.81L717.459 153.99L716.632 130.284L703.639 130.738L704.467 154.443L699.31 154.624L698.326 126.441L721.632 125.627ZM729.945 149.871C727.344 147.214 725.97 143.78 725.823 139.569C725.676 135.358 726.808 131.85 729.218 129.044C731.655 126.237 734.992 124.76 739.229 124.612C743.467 124.464 746.886 125.719 749.487 128.376C752.087 131.007 753.46 134.415 753.606 138.599C753.753 142.81 752.622 146.331 750.213 149.164C747.803 151.97 744.479 153.446 740.241 153.594C736.004 153.742 732.572 152.501 729.945 149.871ZM732.964 132.035C731.534 133.873 730.873 136.324 730.98 139.389C731.087 142.454 731.918 144.866 733.474 146.626C735.03 148.386 737.233 149.217 740.085 149.117C742.937 149.018 745.064 148.036 746.466 146.173C747.895 144.308 748.556 141.844 748.449 138.779C748.342 135.714 747.511 133.315 745.957 131.582C744.401 129.821 742.21 128.991 739.386 129.089C736.534 129.189 734.394 130.171 732.964 132.035ZM758.103 152.57L757.119 124.388L767.312 124.032L773.927 150.697L775.246 150.651L779.985 123.589L790.178 123.233L791.163 151.416L786.006 151.596L785.185 128.09L786.027 124.699L784.668 124.746L779.69 151.817L769.616 152.168L762.721 125.513L761.402 125.559L762.439 128.885L763.26 152.39L758.103 152.57ZM798.497 147.478C795.896 144.82 794.522 141.386 794.375 137.175C794.228 132.964 795.36 129.456 797.77 126.65C800.207 123.844 803.544 122.366 807.781 122.218C812.019 122.07 815.438 123.325 818.039 125.983C820.639 128.613 822.012 132.021 822.158 136.205C822.305 140.416 821.174 143.937 818.765 146.77C816.354 149.576 813.031 151.053 808.793 151.201C804.556 151.349 801.124 150.108 798.497 147.478ZM801.516 129.641C800.086 131.479 799.425 133.93 799.532 136.995C799.639 140.06 800.47 142.472 802.026 144.232C803.582 145.993 805.785 146.823 808.637 146.723C811.488 146.624 813.616 145.642 815.018 143.779C816.447 141.914 817.108 139.45 817.001 136.385C816.894 133.32 816.063 130.921 814.508 129.188C812.953 127.428 810.762 126.597 807.938 126.695C805.086 126.795 802.946 127.777 801.516 129.641ZM862.953 125.175L858.116 125.343L850.876 134.642L863.781 148.88L857.425 149.102L847.597 138.158C847.151 138.387 846.623 138.539 846.012 138.614L846.392 149.487L841.235 149.667L840.855 138.794C840.24 138.762 839.703 138.648 839.242 138.45L830.202 150.053L823.845 150.275L835.726 135.171L827.855 126.4L823.018 126.569L822.861 122.092L828.098 121.909C829.564 121.858 830.797 122.402 831.797 123.541L840.667 133.397L840.251 121.485L845.408 121.305L845.826 133.297L853.984 122.766C854.902 121.56 856.094 120.931 857.56 120.88L862.797 120.697L862.953 125.175ZM867.372 148.755L866.388 120.572L885.456 119.906L885.613 124.383L871.701 124.869L871.958 132.225L883.871 131.809L884.027 136.286L872.114 136.702L872.373 144.097L886.284 143.612L886.44 148.089L867.372 148.755ZM890.444 147.949L889.46 119.766L899.654 119.41L906.268 146.076L907.587 146.03L912.326 118.968L922.52 118.612L923.504 146.795L918.347 146.975L917.526 123.469L918.368 120.077L917.009 120.125L912.031 147.195L901.957 147.547L895.062 120.891L893.743 120.937L894.78 124.263L895.601 147.769L890.444 147.949ZM940.143 139.249L939.729 127.376L951.81 132.918L940.143 139.249ZM967.783 138.284L967.368 126.411L979.449 131.953L967.783 138.284ZM995.422 137.319L995.008 125.446L1007.09 130.988L995.422 137.319ZM1046.79 114.272L1047.77 142.455L1042.61 142.635L1041.78 118.93L1028.79 119.383L1029.62 143.089L1024.46 143.269L1023.48 115.086L1046.79 114.272ZM1060.55 113.792C1062.07 113.739 1063.4 113.772 1064.55 113.892C1065.73 113.984 1066.86 114.225 1067.94 114.614C1069.02 114.977 1069.91 115.506 1070.6 116.202C1071.32 116.871 1071.89 117.771 1072.33 118.903C1072.77 120.035 1073.02 121.388 1073.08 122.96C1073.15 124.932 1072.91 126.581 1072.37 127.908C1071.85 129.233 1071.02 130.263 1069.87 130.997C1068.75 131.703 1067.52 132.213 1066.17 132.527C1064.82 132.814 1063.17 132.992 1061.22 133.06L1057.14 133.202L1057.46 142.117L1052.3 142.297L1051.31 114.114L1060.55 113.792ZM1061.34 128.573C1063.72 128.49 1065.42 128.097 1066.47 127.393C1067.51 126.69 1067.99 125.272 1067.92 123.14C1067.85 121.035 1067.26 119.681 1066.18 119.078C1065.09 118.449 1063.36 118.176 1060.98 118.259L1056.63 118.411L1056.99 128.725L1061.34 128.573ZM1103.87 140.496L1098.71 140.676L1097.89 117.171L1098.69 113.781L1097.37 113.827L1087.59 141.064L1077.4 141.42L1076.42 113.237L1081.53 113.059L1082.35 136.564L1081.55 139.955L1082.87 139.908L1092.69 112.669L1102.88 112.313L1103.87 140.496ZM1132.77 135.004L1135.41 134.912L1135.76 144.866L1130.6 145.046L1130.41 139.569L1112.62 140.19L1112.81 145.667L1107.65 145.847L1107.31 135.893L1109.94 135.801C1112.39 131.099 1113.42 123.152 1113.03 111.959L1131.94 111.299L1132.77 135.004ZM1115.1 135.621L1127.61 135.184L1126.94 115.956L1118.23 116.26C1118.27 125.117 1117.23 131.571 1115.1 135.621ZM1156 110.458L1161.48 110.267L1152.49 130.113L1152.7 136.229C1152.77 138.281 1151.76 139.304 1149.65 139.298L1140.24 139.306L1140.09 134.829L1147.49 134.85L1147.33 130.293L1136.98 111.123L1142.45 110.931L1149.03 123.79L1149.11 126.308L1150.43 126.262L1150.34 123.744L1156 110.458ZM1165.28 138.352L1164.29 110.169L1174.49 109.813L1181.1 136.478L1182.42 136.432L1187.16 109.37L1197.35 109.014L1198.34 137.197L1193.18 137.377L1192.36 113.872L1193.2 110.48L1191.84 110.528L1186.86 137.598L1176.79 137.95L1169.89 111.294L1168.58 111.34L1169.61 114.666L1170.43 138.172L1165.28 138.352ZM1224.01 136.301L1220.75 126.568L1209.32 126.968L1206.74 136.904L1201.54 137.085L1209.08 108.605L1219.67 108.235L1229.21 136.119L1224.01 136.301ZM1210.48 122.444L1219.23 122.139L1215.08 109.716L1213.76 109.762L1210.48 122.444ZM1232.42 136.007L1231.44 107.824L1250.51 107.158L1250.66 111.635L1236.75 112.121L1237.01 119.477L1248.92 119.061L1249.08 123.538L1237.17 123.954L1237.42 131.349L1251.33 130.864L1251.49 135.341L1232.42 136.007ZM1255.49 135.201L1254.51 107.018L1264.7 106.662L1271.32 133.328L1272.64 133.282L1277.38 106.22L1287.57 105.864L1288.55 134.047L1283.4 134.227L1282.58 110.721L1283.42 107.33L1282.06 107.377L1277.08 134.447L1267.01 134.799L1260.11 108.143L1258.79 108.19L1259.83 111.515L1260.65 135.021L1255.49 135.201ZM1305.19 126.501L1304.78 114.629L1316.86 120.17L1305.19 126.501ZM1332.83 125.536L1332.42 113.663L1344.5 119.205L1332.83 125.536ZM1360.47 124.571L1360.06 112.698L1372.14 118.24L1360.47 124.571ZM1408.84 101.629L1413.95 101.45L1414.94 129.633L1409.82 129.812L1409.42 118.259L1394.27 118.788L1394.67 130.341L1389.51 130.521L1388.53 102.338L1393.69 102.158L1394.11 114.311L1409.26 113.782L1408.84 101.629ZM1440.64 128.736L1437.38 119.004L1425.94 119.403L1423.37 129.339L1418.17 129.52L1425.7 101.04L1436.29 100.67L1445.83 128.554L1440.64 128.736ZM1427.11 114.88L1435.86 114.574L1431.7 102.151L1430.38 102.197L1427.11 114.88ZM1457.3 99.9368C1458.82 99.8837 1460.15 99.9172 1461.3 100.037C1462.48 100.129 1463.61 100.37 1464.69 100.759C1465.77 101.122 1466.66 101.651 1467.35 102.348C1468.07 103.016 1468.64 103.917 1469.08 105.049C1469.52 106.181 1469.77 107.533 1469.83 109.105C1469.9 111.077 1469.66 112.727 1469.12 114.053C1468.6 115.378 1467.77 116.408 1466.63 117.142C1465.5 117.848 1464.27 118.358 1462.92 118.672C1461.57 118.959 1459.92 119.137 1457.97 119.205L1453.89 119.347L1454.21 128.262L1449.05 128.442L1448.06 100.259L1457.3 99.9368ZM1458.1 114.718C1460.47 114.635 1462.17 114.242 1463.22 113.539C1464.26 112.835 1464.74 111.417 1464.67 109.285C1464.6 107.18 1464.02 105.826 1462.93 105.224C1461.84 104.595 1460.11 104.321 1457.74 104.404L1453.38 104.556L1453.74 114.87L1458.1 114.718ZM1500.62 126.641L1495.46 126.821L1494.64 103.316L1495.44 99.9257L1494.12 99.9718L1484.35 127.21L1474.15 127.565L1473.17 99.3827L1478.28 99.204L1479.11 122.71L1478.3 126.1L1479.62 126.054L1489.44 98.8145L1499.63 98.4585L1500.62 126.641ZM1503.83 112.401C1503.68 108.217 1504.82 104.721 1507.26 101.914C1509.7 99.0809 1513.03 97.5902 1517.27 97.4423C1521.08 97.3092 1524.21 98.2139 1526.65 100.157C1529.09 102.072 1530.59 104.769 1531.14 108.245L1525.98 108.425C1525.58 106.251 1524.63 104.603 1523.13 103.482C1521.65 102.359 1519.77 101.838 1517.51 101.917C1514.71 102.014 1512.56 102.984 1511.05 104.824C1509.56 106.637 1508.87 109.102 1508.98 112.221C1509.09 115.339 1509.95 117.764 1511.56 119.495C1513.19 121.226 1515.41 122.042 1518.21 121.945C1520.47 121.865 1522.3 121.214 1523.7 119.992C1525.13 118.741 1525.96 117.018 1526.2 114.821L1531.36 114.641C1531.06 118.174 1529.75 120.994 1527.45 123.103C1525.15 125.184 1522.09 126.292 1518.28 126.425C1514.05 126.573 1510.61 125.332 1507.99 122.702C1505.36 120.045 1503.97 116.611 1503.83 112.401ZM1551.39 96.6511L1556.87 96.4599L1547.87 116.306L1548.09 122.422C1548.16 124.474 1547.14 125.497 1545.03 125.491L1535.63 125.499L1535.47 121.022L1542.87 121.043L1542.72 116.486L1532.36 97.3156L1537.84 97.1244L1544.41 109.983L1544.5 112.501L1545.82 112.455L1545.73 109.937L1551.39 96.6511ZM1560.66 124.545L1559.68 96.3617L1578.74 95.6958L1578.9 100.173L1564.99 100.659L1565.25 108.014L1577.16 107.598L1577.32 112.076L1565.4 112.492L1565.66 119.887L1579.57 119.401L1579.73 123.879L1560.66 124.545ZM1583.73 123.739L1582.75 95.556L1592.94 95.2L1599.56 121.865L1600.88 121.819L1605.61 94.7575L1615.81 94.4015L1616.79 122.584L1611.64 122.764L1610.81 99.2588L1611.66 95.8673L1610.3 95.9148L1605.32 122.985L1595.25 123.337L1588.35 96.6812L1587.03 96.7272L1588.07 100.053L1588.89 123.559L1583.73 123.739ZM1633.43 115.039L1633.02 103.166L1645.1 108.708L1633.43 115.039ZM1661.07 114.074L1660.66 102.201L1672.74 107.743L1661.07 114.074ZM1688.71 113.109L1688.3 101.236L1700.38 106.778L1688.71 113.109ZM1734.6 90.2533L1740.07 90.0621L1731.08 109.908L1731.29 116.024C1731.37 118.076 1730.35 119.099 1728.24 119.093L1718.83 119.101L1718.68 114.624L1726.08 114.645L1725.92 110.088L1715.57 90.9178L1721.05 90.7266L1727.62 103.585L1727.71 106.103L1729.03 106.057L1728.94 103.539L1734.6 90.2533ZM1766.19 89.1501L1767.17 117.333L1762.02 117.513L1761.19 93.8074L1748.2 94.2611L1749.03 117.967L1743.87 118.147L1742.88 89.9639L1766.19 89.1501ZM1792.84 116.436L1789.58 106.704L1778.15 107.104L1775.57 117.04L1770.38 117.221L1777.91 88.7409L1788.5 88.3709L1798.04 116.255L1792.84 116.436ZM1779.31 102.58L1788.07 102.275L1783.91 89.8521L1782.59 89.8981L1779.31 102.58ZM1818.6 115.537L1808.56 104.281C1807.98 104.701 1807.27 104.966 1806.42 105.076L1806.8 115.949L1801.65 116.129L1800.66 87.9463L1805.82 87.7662L1806.24 99.7589L1814.4 89.2278C1815.31 88.0217 1816.51 87.393 1817.97 87.3418L1823.21 87.159L1823.36 91.6362L1818.53 91.8051L1811.71 100.528L1824.71 115.324L1818.6 115.537ZM1845.58 86.3776L1851.06 86.1863L1842.07 106.032L1842.28 112.149C1842.35 114.201 1841.33 115.223 1839.23 115.217L1829.82 115.225L1829.66 110.748L1837.07 110.77L1836.91 106.212L1826.56 87.0421L1832.03 86.8508L1838.61 99.7093L1838.69 102.228L1840.01 102.182L1839.92 99.6632L1845.58 86.3776ZM1854.86 114.271L1853.87 86.0882L1872.94 85.4223L1873.1 89.8995L1859.19 90.3853L1859.44 97.7409L1871.35 97.3249L1871.51 101.802L1859.6 102.218L1859.86 109.614L1873.77 109.128L1873.92 113.605L1854.86 114.271ZM1877.93 113.465L1876.94 85.2825L1887.14 84.9265L1893.75 111.592L1895.07 111.546L1899.81 84.484L1910 84.128L1910.99 112.311L1905.83 112.491L1905.01 88.9852L1905.85 85.5938L1904.49 85.6412L1899.51 112.711L1889.44 113.063L1882.55 86.4076L1881.23 86.4537L1882.26 89.7795L1883.08 113.285L1877.93 113.465ZM1927.63 104.766L1927.21 92.8927L1939.29 98.4345L1927.63 104.766ZM1955.27 103.8L1954.85 91.9276L1966.93 97.4693L1955.27 103.8ZM1982.91 102.835L1982.49 90.9624L1994.57 96.5041L1982.91 102.835Z" fill="#020205"/>
<g filter="url(#filter0_d_3_7572)">
<rect x="-428.326" y="25" width="2777" height="60" transform="rotate(3 -428.326 25)" fill="#AAFF00"/>
<path d="M28.1917 63.7454L26.7158 91.9067L21.5629 91.6367L22.8043 67.9492L9.8221 67.2688L8.5807 90.9563L3.42777 90.6863L4.90364 62.5249L28.1917 63.7454ZM41.9444 64.4661C43.4623 64.5457 44.7896 64.6954 45.9263 64.9152C47.0911 65.1097 48.1949 65.4479 49.2378 65.9298C50.282 66.3851 51.1182 66.9897 51.7463 67.7436C52.4024 68.4723 52.9001 69.4196 53.2396 70.5857C53.579 71.7517 53.7076 73.1203 53.6252 74.6915C53.5219 76.6621 53.1432 78.2845 52.4889 79.5587C51.8613 80.8342 50.9435 81.7875 49.7355 82.4185C48.5555 83.0242 47.2795 83.4247 45.9074 83.6198C44.5367 83.7883 42.8793 83.8216 40.9353 83.7197L36.8609 83.5062L36.3941 92.414L31.2412 92.1439L32.717 63.9826L41.9444 64.4661ZM41.4494 79.2605C43.8195 79.3847 45.5546 79.1419 46.6547 78.5319C47.7548 77.922 48.3606 76.5518 48.4723 74.4214C48.5826 72.3176 48.1218 70.9183 47.0901 70.2233C46.0598 69.5018 44.3596 69.0789 41.9895 68.9546L37.6355 68.7265L37.0954 79.0323L41.4494 79.2605ZM82.7686 94.8443L77.6156 94.5743L78.8466 71.0865L79.9412 67.7793L78.623 67.7102L66.5109 93.9923L56.3249 93.4585L57.8007 65.2971L62.9137 65.5651L61.6828 89.0529L60.5882 92.3601L61.9064 92.4292L74.0584 66.1492L84.2444 66.683L82.7686 94.8443ZM112.042 91.8923L114.678 92.0305L114.157 101.977L109.004 101.707L109.291 96.2343L91.5153 95.3027L91.2285 100.775L86.0756 100.505L86.5969 90.5588L89.2332 90.697C92.0844 86.2268 93.8031 78.3993 94.3893 67.2147L113.283 68.2049L112.042 91.8923ZM94.3862 90.967L106.889 91.6223L107.896 72.4087L99.1879 71.9523C98.4583 80.7795 96.8577 87.1178 94.3862 90.967ZM137.328 69.465L142.8 69.7518L132.112 88.7384L131.791 94.85C131.684 96.9005 130.58 97.8307 128.481 97.6406L119.11 96.829L119.345 92.3552L126.72 93.0221L126.959 88.4683L118.314 68.4685L123.786 68.7553L129.213 82.1377L129.081 84.6542L130.399 84.7233L130.531 82.2067L137.328 69.465ZM144.133 98.0603L145.609 69.899L155.795 70.4328L160.06 97.5732L161.379 97.6423L168.458 71.0964L178.644 71.6302L177.168 99.7916L172.015 99.5215L173.246 76.0338L174.38 72.7286L173.022 72.6574L165.704 99.1908L155.637 98.6632L151.092 71.5081L149.774 71.4391L150.517 74.8426L149.286 98.3304L144.133 98.0603ZM202.823 101.136L200.422 91.1568L188.998 90.5581L185.567 100.232L180.374 99.9596L190.358 72.2442L200.944 72.7989L208.016 101.408L202.823 101.136ZM190.551 86.1533L199.299 86.6118L196.241 73.8743L194.923 73.8052L190.551 86.1533ZM211.229 101.577L212.704 73.4153L231.758 74.4139L231.524 78.8877L217.623 78.1592L217.238 85.5091L229.141 86.133L228.907 90.6068L217.003 89.983L216.616 97.3728L230.517 98.1014L230.282 102.575L211.229 101.577ZM234.283 102.785L235.759 74.6235L245.945 75.1573L250.21 102.298L251.528 102.367L258.607 75.821L268.793 76.3548L267.317 104.516L262.165 104.246L263.396 80.7583L264.53 77.4532L263.172 77.382L255.853 103.915L245.787 103.388L241.242 76.2327L239.924 76.1636L240.667 79.5672L239.436 103.055L234.283 102.785ZM284.551 98.4498L285.173 86.5861L296.725 93.1596L284.551 98.4498ZM312.17 99.8972L312.792 88.0335L324.343 94.6071L312.17 99.8972ZM339.788 101.345L340.41 89.4809L351.962 96.0545L339.788 101.345ZM389.969 82.7053L395.082 82.9733L393.606 111.135L388.493 110.867L389.098 99.3225L373.959 98.5291L373.354 110.073L368.201 109.803L369.676 81.6418L374.829 81.9119L374.193 94.0552L389.332 94.8487L389.969 82.7053ZM419.284 112.48L416.883 102.501L405.459 101.902L402.028 111.576L396.835 111.304L406.819 83.5884L417.404 84.1432L424.477 112.753L419.284 112.48ZM407.011 97.4975L415.759 97.956L412.702 85.2185L411.383 85.1494L407.011 97.4975ZM438.392 85.2431C439.91 85.3227 441.238 85.4723 442.374 85.6921C443.539 85.8867 444.643 86.2249 445.686 86.7068C446.73 87.1621 447.566 87.7667 448.194 88.5206C448.85 89.2493 449.348 90.1966 449.688 91.3626C450.027 92.5287 450.156 93.8973 450.073 95.4684C449.97 97.4391 449.591 99.0615 448.937 100.336C448.309 101.611 447.392 102.564 446.184 103.195C445.004 103.801 443.728 104.202 442.355 104.397C440.985 104.565 439.327 104.599 437.383 104.497L433.309 104.283L432.842 113.191L427.689 112.921L429.165 84.7595L438.392 85.2431ZM437.898 100.037C440.268 100.162 442.003 99.9188 443.103 99.3089C444.203 98.699 444.809 97.3288 444.92 95.1984C445.031 93.0946 444.57 91.6952 443.538 91.0003C442.508 90.2787 440.808 89.8558 438.438 89.7316L434.084 89.5034L433.544 99.8093L437.898 100.037ZM479.217 115.621L474.064 115.351L475.295 91.8635L476.389 88.5562L475.071 88.4872L462.959 114.769L452.773 114.235L454.249 86.0741L459.362 86.3421L458.131 109.83L457.036 113.137L458.354 113.206L470.507 86.9261L480.693 87.46L479.217 115.621ZM483.656 101.715C483.875 97.5336 485.32 94.1513 487.993 91.5676C490.666 88.9573 494.12 87.7631 498.354 87.985C502.162 88.1846 505.198 89.3584 507.462 91.5065C509.728 93.628 510.982 96.4442 511.225 99.955L506.073 99.685C505.867 97.4846 505.063 95.7601 503.66 94.5116C502.283 93.2646 500.463 92.5817 498.2 92.4631C495.404 92.3165 493.173 93.0942 491.508 94.7961C489.872 96.4727 488.972 98.8689 488.809 101.985C488.645 105.1 489.289 107.591 490.74 109.456C492.218 111.323 494.355 112.329 497.151 112.476C499.414 112.594 501.296 112.105 502.795 111.009C504.323 109.887 505.304 108.243 505.738 106.076L510.891 106.346C510.28 109.839 508.737 112.535 506.261 114.435C503.786 116.308 500.645 117.145 496.837 116.945C492.602 116.723 489.292 115.188 486.904 112.339C484.518 109.464 483.435 105.922 483.656 101.715ZM532.41 90.1704L537.883 90.4572L527.194 109.444L526.874 115.555C526.767 117.606 525.663 118.536 523.564 118.346L514.193 117.534L514.428 113.061L521.803 113.728L522.042 109.174L513.396 89.1739L518.869 89.4607L524.296 102.843L524.164 105.36L525.482 105.429L525.614 102.912L532.41 90.1704ZM539.216 118.766L540.692 90.6044L559.746 91.603L559.511 96.0768L545.61 95.3483L545.225 102.698L557.129 103.322L556.894 107.796L544.991 107.172L544.603 114.562L558.504 115.29L558.27 119.764L539.216 118.766ZM562.27 119.974L563.746 91.8126L573.932 92.3464L578.198 119.487L579.516 119.556L586.595 93.0101L596.781 93.5439L595.305 121.705L590.152 121.435L591.383 97.9474L592.517 94.6423L591.159 94.5711L583.841 121.104L573.774 120.577L569.229 93.4218L567.911 93.3527L568.654 96.7562L567.423 120.244L562.27 119.974ZM612.539 115.639L613.161 103.775L624.712 110.349L612.539 115.639ZM640.157 117.086L640.779 105.223L652.331 111.796L640.157 117.086ZM667.775 118.534L668.397 106.67L679.949 113.244L667.775 118.534ZM715.479 99.7646L720.952 100.051L710.264 119.038L709.943 125.15C709.836 127.2 708.732 128.13 706.633 127.94L697.262 127.129L697.497 122.655L704.872 123.322L705.111 118.768L696.465 98.7681L701.938 99.0549L707.365 112.437L707.233 114.954L708.551 115.023L708.683 112.506L715.479 99.7646ZM747.049 101.419L745.573 129.58L740.42 129.31L741.662 105.623L728.679 104.943L727.438 128.63L722.285 128.36L723.761 100.199L747.049 101.419ZM771.223 130.925L768.822 120.945L757.397 120.347L753.967 130.02L748.774 129.748L758.758 102.033L769.343 102.587L776.416 131.197L771.223 130.925ZM758.95 115.942L767.698 116.4L764.641 103.663L763.322 103.594L758.95 115.942ZM796.955 132.273L787.935 120.185C787.329 120.553 786.597 120.755 785.741 120.791L785.171 131.656L780.018 131.386L781.494 103.224L786.647 103.494L786.019 115.478L795.063 105.698C796.083 104.576 797.326 104.054 798.79 104.131L804.023 104.405L803.789 108.879L798.955 108.626L791.401 116.721L803.067 132.594L796.955 132.273ZM826.382 105.577L831.854 105.864L821.166 124.85L820.846 130.962C820.738 133.012 819.635 133.943 817.535 133.752L808.165 132.941L808.399 128.467L815.774 129.134L816.013 124.58L807.368 104.58L812.84 104.867L818.268 118.249L818.136 120.766L819.454 120.835L819.586 118.319L826.382 105.577ZM833.187 134.172L834.663 106.011L853.717 107.009L853.483 111.483L839.582 110.755L839.197 118.105L851.1 118.728L850.866 123.202L838.962 122.578L838.575 129.968L852.476 130.697L852.241 135.171L833.187 134.172ZM856.242 135.38L857.718 107.219L867.904 107.753L872.169 134.893L873.487 134.962L880.566 108.416L890.752 108.95L889.276 137.112L884.124 136.842L885.354 113.354L886.489 110.049L885.131 109.977L877.812 136.511L867.746 135.983L863.201 108.828L861.883 108.759L862.626 112.163L861.395 135.65L856.242 135.38ZM906.51 131.045L907.132 119.182L918.684 125.755L906.51 131.045ZM934.129 132.493L934.75 120.629L946.302 127.203L934.129 132.493ZM961.747 133.94L962.369 122.076L973.921 128.65L961.747 133.94ZM1011.93 115.301L1017.04 115.569L1015.56 143.73L1010.45 143.462L1011.06 131.918L995.917 131.125L995.312 142.669L990.16 142.399L991.635 114.237L996.788 114.507L996.152 126.651L1011.29 127.444L1011.93 115.301ZM1041.24 145.076L1038.84 135.097L1027.42 134.498L1023.99 144.171L1018.79 143.899L1028.78 116.184L1039.36 116.739L1046.44 145.348L1041.24 145.076ZM1028.97 130.093L1037.72 130.551L1034.66 117.814L1033.34 117.745L1028.97 130.093ZM1074.41 118.575L1072.94 146.737L1067.78 146.467L1069.02 122.779L1056.04 122.099L1054.8 145.786L1049.65 145.516L1051.12 117.355L1074.41 118.575ZM1080.58 143.452C1078.22 140.578 1077.15 137.037 1077.37 132.83C1077.59 128.622 1079.03 125.226 1081.67 122.641C1084.34 120.057 1087.8 118.876 1092.03 119.098C1096.26 119.32 1099.56 120.868 1101.92 123.742C1104.28 126.59 1105.35 130.104 1105.13 134.285C1104.91 138.492 1103.48 141.902 1100.83 144.514C1098.19 147.099 1094.75 148.28 1090.51 148.059C1086.28 147.837 1082.97 146.301 1080.58 143.452ZM1085.14 125.947C1083.56 127.653 1082.69 130.038 1082.52 133.1C1082.36 136.162 1082.98 138.638 1084.38 140.527C1085.78 142.416 1087.9 143.435 1090.75 143.585C1093.6 143.734 1095.8 142.942 1097.36 141.208C1098.95 139.475 1099.82 137.077 1099.98 134.015C1100.14 130.952 1099.52 128.49 1098.13 126.628C1096.73 124.739 1094.62 123.72 1091.8 123.572C1088.95 123.423 1086.73 124.214 1085.14 125.947ZM1131.29 121.556L1129.82 149.718L1124.7 149.45L1125.94 125.762L1117.16 125.302C1117.02 127.404 1116.87 129.225 1116.71 130.766C1116.57 132.308 1116.37 133.952 1116.09 135.7C1115.81 137.448 1115.48 138.926 1115.1 140.134C1114.71 141.316 1114.21 142.491 1113.59 143.66C1112.97 144.803 1112.25 145.713 1111.44 146.392C1110.66 147.045 1109.7 147.569 1108.56 147.963C1107.44 148.332 1106.18 148.479 1104.77 148.405L1105 143.931C1105.99 143.983 1106.84 143.787 1107.56 143.344C1108.3 142.902 1108.92 142.094 1109.41 140.918C1109.9 139.715 1110.3 138.588 1110.63 137.537C1110.95 136.459 1111.21 134.817 1111.41 132.611C1111.63 130.406 1111.79 128.612 1111.89 127.229C1111.99 125.819 1112.11 123.676 1112.26 120.8C1112.27 120.693 1112.27 120.613 1112.28 120.56L1131.29 121.556ZM1156.14 122.859L1161.26 123.127L1159.78 151.288L1154.67 151.02L1155.27 139.476L1140.13 138.683L1139.53 150.227L1134.38 149.957L1135.85 121.795L1141 122.065L1140.37 134.209L1155.51 135.002L1156.14 122.859ZM1190.82 152.915L1185.67 152.645L1186.9 129.157L1187.99 125.85L1186.67 125.781L1174.56 152.063L1164.37 151.529L1165.85 123.368L1170.96 123.636L1169.73 147.123L1168.64 150.431L1169.96 150.5L1182.11 124.22L1192.29 124.753L1190.82 152.915ZM1195.35 153.152L1196.82 124.991L1207.01 125.525L1211.27 152.665L1212.59 152.734L1219.67 126.188L1229.86 126.722L1228.38 154.883L1223.23 154.613L1224.46 131.126L1225.59 127.82L1224.24 127.749L1216.92 154.283L1206.85 153.755L1202.31 126.6L1200.99 126.531L1201.73 129.934L1200.5 153.422L1195.35 153.152ZM1245.62 148.817L1246.24 136.953L1257.79 143.527L1245.62 148.817ZM1273.23 150.264L1273.86 138.401L1285.41 144.974L1273.23 150.264ZM1300.85 151.712L1301.47 139.848L1313.03 146.422L1300.85 151.712ZM1354.03 133.23L1352.55 161.391L1347.4 161.121L1348.64 137.433L1335.66 136.753L1334.42 160.44L1329.26 160.17L1330.74 132.009L1354.03 133.23ZM1367.78 133.95C1369.3 134.03 1370.63 134.18 1371.76 134.399C1372.93 134.594 1374.03 134.932 1375.07 135.414C1376.12 135.869 1376.95 136.474 1377.58 137.228C1378.24 137.956 1378.74 138.904 1379.08 140.07C1379.42 141.236 1379.54 142.604 1379.46 144.176C1379.36 146.146 1378.98 147.769 1378.33 149.043C1377.7 150.318 1376.78 151.272 1375.57 151.903C1374.39 152.508 1373.12 152.909 1371.74 153.104C1370.37 153.272 1368.72 153.306 1366.77 153.204L1362.7 152.99L1362.23 161.898L1357.08 161.628L1358.55 133.467L1367.78 133.95ZM1367.29 148.745C1369.66 148.869 1371.39 148.626 1372.49 148.016C1373.59 147.406 1374.2 146.036 1374.31 143.906C1374.42 141.802 1373.96 140.402 1372.93 139.707C1371.9 138.986 1370.2 138.563 1367.83 138.439L1363.47 138.211L1362.93 148.516L1367.29 148.745ZM1385.24 159.419C1382.88 156.545 1381.81 153.004 1382.03 148.796C1382.25 144.589 1383.69 141.193 1386.33 138.608C1389 136.024 1392.46 134.843 1396.69 135.065C1400.92 135.287 1404.22 136.835 1406.58 139.709C1408.94 142.556 1410.01 146.07 1409.79 150.251C1409.57 154.459 1408.14 157.869 1405.49 160.48C1402.85 163.065 1399.41 164.247 1395.17 164.025C1390.94 163.803 1387.63 162.268 1385.24 159.419ZM1389.8 141.914C1388.22 143.62 1387.35 146.004 1387.18 149.067C1387.02 152.129 1387.64 154.605 1389.04 156.494C1390.44 158.383 1392.56 159.402 1395.41 159.551C1398.26 159.701 1400.46 158.908 1402.02 157.174C1403.61 155.441 1404.48 153.044 1404.64 149.981C1404.8 146.919 1404.18 144.456 1402.79 142.594C1401.39 140.705 1399.28 139.687 1396.46 139.539C1393.61 139.389 1391.39 140.181 1389.8 141.914ZM1435.54 161.254L1438.17 161.392L1437.65 171.338L1432.5 171.068L1432.79 165.596L1415.01 164.664L1414.72 170.137L1409.57 169.867L1410.09 159.92L1412.73 160.058C1415.58 155.588 1417.3 147.761 1417.89 136.576L1436.78 137.566L1435.54 161.254ZM1417.88 160.329L1430.39 160.984L1431.39 141.77L1422.68 141.314C1421.95 150.141 1420.35 156.479 1417.88 160.329ZM1441.14 166.034L1442.62 137.872L1451.57 138.341C1455.51 138.548 1458.34 139.191 1460.08 140.269C1461.84 141.323 1462.65 143.181 1462.51 145.844C1462.45 146.989 1462.21 147.938 1461.8 148.691C1461.41 149.445 1460.87 150.004 1460.19 150.369C1459.5 150.707 1458.84 150.939 1458.19 151.065C1457.54 151.192 1456.78 151.258 1455.9 151.266L1455.82 152.624C1457.02 152.713 1458.05 152.874 1458.92 153.107C1459.82 153.34 1460.68 153.706 1461.51 154.203C1462.34 154.701 1462.95 155.414 1463.36 156.343C1463.77 157.272 1463.93 158.403 1463.86 159.734C1463.78 161.225 1463.41 162.461 1462.75 163.441C1462.11 164.395 1461.19 165.108 1459.99 165.58C1458.79 166.051 1457.48 166.356 1456.06 166.495C1454.66 166.635 1453.01 166.655 1451.09 166.555L1441.14 166.034ZM1447.18 149.407L1451.49 149.633C1453.47 149.736 1454.9 149.611 1455.8 149.258C1456.73 148.879 1457.23 147.971 1457.3 146.533C1457.34 145.894 1457.27 145.356 1457.11 144.92C1456.95 144.458 1456.72 144.112 1456.44 143.884C1456.19 143.63 1455.78 143.436 1455.23 143.3C1454.71 143.139 1454.22 143.033 1453.77 142.983C1453.31 142.932 1452.68 142.886 1451.85 142.842L1447.54 142.616L1447.18 149.407ZM1446.53 161.83L1451.84 162.108C1454.24 162.234 1455.97 162.084 1457.03 161.659C1458.1 161.234 1458.67 160.183 1458.76 158.505C1458.85 156.854 1458.37 155.748 1457.33 155.186C1456.32 154.626 1454.63 154.283 1452.26 154.159L1446.95 153.881L1446.53 161.83ZM1493.64 168.785L1488.49 168.515L1489.72 145.027L1490.82 141.72L1489.5 141.651L1477.39 167.933L1467.2 167.399L1468.68 139.238L1473.79 139.506L1472.56 162.994L1471.46 166.301L1472.78 166.37L1484.93 140.09L1495.12 140.624L1493.64 168.785ZM1519.94 141.925L1525.05 142.193L1523.58 170.354L1518.47 170.086L1519.07 158.542L1503.93 157.748L1503.33 169.293L1498.17 169.023L1499.65 140.861L1504.8 141.131L1504.17 153.275L1519.3 154.068L1519.94 141.925ZM1528.13 170.593L1529.61 142.431L1548.66 143.43L1548.43 147.904L1534.53 147.175L1534.14 154.525L1546.04 155.149L1545.81 159.623L1533.91 158.999L1533.52 166.389L1547.42 167.117L1547.19 171.591L1528.13 170.593ZM1551.19 171.801L1552.66 143.64L1562.85 144.173L1567.11 171.314L1568.43 171.383L1575.51 144.837L1585.7 145.371L1584.22 173.532L1579.07 173.262L1580.3 149.774L1581.43 146.469L1580.08 146.398L1572.76 172.931L1562.69 172.404L1558.15 145.249L1556.83 145.18L1557.57 148.583L1556.34 172.071L1551.19 171.801ZM1601.46 167.466L1602.08 155.602L1613.63 162.176L1601.46 167.466ZM1629.07 168.913L1629.7 157.049L1641.25 163.623L1629.07 168.913ZM1656.69 170.361L1657.31 158.497L1668.87 165.07L1656.69 170.361ZM1709.87 151.878L1708.39 180.04L1703.24 179.77L1704.48 156.082L1691.5 155.402L1690.26 179.089L1685.1 178.819L1686.58 150.658L1709.87 151.878ZM1716.04 176.755C1713.68 173.881 1712.61 170.34 1712.83 166.133C1713.05 161.925 1714.48 158.529 1717.13 155.944C1719.8 153.36 1723.25 152.179 1727.49 152.401C1731.72 152.623 1735.02 154.171 1737.38 157.045C1739.74 159.893 1740.81 163.407 1740.59 167.588C1740.37 171.795 1738.94 175.205 1736.29 177.817C1733.64 180.402 1730.2 181.583 1725.97 181.361C1721.73 181.139 1718.42 179.604 1716.04 176.755ZM1720.6 159.25C1719.01 160.956 1718.14 163.34 1717.98 166.403C1717.82 169.465 1718.44 171.941 1719.83 173.83C1721.23 175.719 1723.35 176.738 1726.2 176.888C1729.05 177.037 1731.26 176.244 1732.82 174.51C1734.4 172.778 1735.28 170.38 1735.44 167.318C1735.6 164.255 1734.98 161.793 1733.58 159.93C1732.18 158.041 1730.08 157.023 1727.25 156.875C1724.4 156.726 1722.19 157.517 1720.6 159.25ZM1743.85 181.898L1745.33 153.737L1755.51 154.27L1759.78 181.411L1761.1 181.48L1768.18 154.934L1778.36 155.468L1776.89 183.629L1771.73 183.359L1772.96 159.871L1774.1 156.566L1772.74 156.495L1765.42 183.028L1755.36 182.501L1750.81 155.346L1749.49 155.277L1750.24 158.68L1749 182.168L1743.85 181.898ZM1784.54 180.345C1782.18 177.471 1781.11 173.93 1781.33 169.723C1781.55 165.515 1782.98 162.119 1785.63 159.534C1788.3 156.95 1791.75 155.769 1795.99 155.991C1800.22 156.213 1803.52 157.761 1805.88 160.635C1808.24 163.482 1809.31 166.997 1809.09 171.178C1808.87 175.385 1807.44 178.795 1804.79 181.407C1802.14 183.992 1798.7 185.173 1794.47 184.951C1790.23 184.729 1786.92 183.194 1784.54 180.345ZM1789.1 162.84C1787.51 164.546 1786.64 166.93 1786.48 169.993C1786.32 173.055 1786.94 175.531 1788.33 177.42C1789.73 179.309 1791.85 180.328 1794.7 180.477C1797.55 180.627 1799.76 179.834 1801.32 178.1C1802.9 176.368 1803.78 173.97 1803.94 170.908C1804.1 167.845 1803.48 165.383 1802.08 163.52C1800.68 161.631 1798.57 160.613 1795.75 160.465C1792.9 160.316 1790.68 161.107 1789.1 162.84ZM1850.69 163.745L1845.86 163.491L1837.83 172.123L1849.45 187.432L1843.1 187.099L1834.26 175.341C1833.8 175.53 1833.26 175.635 1832.64 175.656L1832.07 186.522L1826.92 186.251L1827.49 175.386C1826.88 175.301 1826.35 175.14 1825.91 174.903L1815.9 185.674L1809.54 185.341L1822.7 171.33L1815.62 161.907L1810.79 161.653L1811.02 157.179L1816.25 157.454C1817.72 157.53 1818.9 158.18 1819.8 159.402L1827.77 169.994L1828.4 158.09L1833.55 158.36L1832.92 170.344L1841.97 160.564C1842.99 159.442 1844.23 158.92 1845.69 158.997L1850.93 159.271L1850.69 163.745ZM1853.04 187.62L1854.51 159.459L1873.57 160.457L1873.33 164.931L1859.43 164.203L1859.05 171.553L1870.95 172.177L1870.72 176.65L1858.81 176.027L1858.43 183.416L1872.33 184.145L1872.09 188.619L1853.04 187.62ZM1876.09 188.828L1877.57 160.667L1887.75 161.201L1892.02 188.341L1893.34 188.41L1900.42 161.865L1910.6 162.398L1909.13 190.56L1903.97 190.29L1905.2 166.802L1906.34 163.497L1904.98 163.426L1897.66 189.959L1887.6 189.431L1883.05 162.276L1881.73 162.207L1882.48 165.611L1881.25 189.099L1876.09 188.828Z" fill="#020205"/>
</g>
<defs>
<filter id="filter0_d_3_7572" x="-471.466" y="0" width="2856.33" height="285.255" filterUnits="userSpaceOnUse" color-interpolation-filters="sRGB">
<feFlood flood-opacity="0" result="BackgroundImageFix"/>
<feColorMatrix in="SourceAlpha" type="matrix" values="0 0 0 0 0 0 0 0 0 0 0 0 0 0 0 0 0 0 127 0" result="hardAlpha"/>
<feOffset dy="15"/>
<feGaussianBlur stdDeviation="20"/>
<feComposite in2="hardAlpha" operator="out"/>
<feColorMatrix type="matrix" values="0 0 0 0 0.00784314 0 0 0 0 0.00784314 0 0 0 0 0.0196078 0 0 0 0.8 0"/>
<feBlend mode="normal" in2="BackgroundImageFix" result="effect1_dropShadow_3_7572"/>
<feBlend mode="normal" in="SourceGraphic" in2="effect1_dropShadow_3_7572" result="shape"/>
</filter>
</defs>
</svg>
